<?xml version="1.0" encoding="UTF-8"?> <svg xmlns="http://www.w3.org/2000/svg" width="54" height="62" viewBox="0 0 54 62" fill="none"><path d="M27.5 13C21.6579 13 16.9023 17.5806 16.5931 23.3425C12.8452 24.0177 10 27.2888 10 31.2292C10 35.6581 13.5919 39.25 18.0208 39.25H36.9792C41.4081 39.25 45 35.6581 45 31.2292C45 27.2888 42.1548 24.0177 38.4069 23.3425C38.0977 17.5806 33.3421 13 27.5 13ZM21.6667 48V45.0833H26.0417V42.1667H28.9583V45.0833H33.3333V48H21.6667ZM34.7917 45.0833V48H39.1667V45.0833H34.7917ZM20.2083 45.0833H15.8333V48H20.2083V45.0833Z" fill="#3BB1B1"></path><path d="M1 15.8148L27 1L53 15.8148V45.4444L27 61L1 45.4444V15.8148Z" stroke="#369F9F"></path></svg> 