<?xml version="1.0" encoding="UTF-8"?> <svg xmlns="http://www.w3.org/2000/svg" width="54" height="62" viewBox="0 0 54 62" fill="none"><path d="M35.25 27.5833V21.75C35.25 16.9185 31.3315 13 26.5 13C21.6685 13 17.75 16.9185 17.75 21.75V27.5833H15.375C14.2704 27.5833 13.375 28.4788 13.375 29.5833V46C13.375 47.1046 14.2704 48 15.375 48H37.625C38.7296 48 39.625 47.1046 39.625 46V29.5833C39.625 28.4788 38.7296 27.5833 37.625 27.5833H35.25ZM20.6667 27.5833V21.75C20.6667 18.5329 23.2829 15.9167 26.5 15.9167C29.7171 15.9167 32.3333 18.5329 32.3333 21.75V27.5833H20.6667Z" fill="#3BB1B1"></path><path d="M1 15.8148L27 1L53 15.8148V45.4444L27 61L1 45.4444V15.8148Z" stroke="#369F9F"></path></svg> 