<?xml version="1.0" encoding="UTF-8"?> <svg xmlns="http://www.w3.org/2000/svg" width="66" height="66" viewBox="0 0 66 66" fill="none"><path d="M50.622 35.0065V43.1773L47.0052 45.2497L40.062 41.1841L47.0712 37.0789L50.622 35.0065Z" fill="#6DCECE"></path><path d="M50.622 26.7432V35.0064L47.0712 37.0788L40.0488 32.934L47.0844 28.8156L50.622 26.7432Z" fill="#3FBDBD"></path><path d="M50.6219 22.8229V26.7433L47.0843 28.8157L40.1543 24.8161L47.0579 20.7769L50.6219 22.8229Z" fill="#2C8585"></path><path d="M47.0844 28.8156L40.0488 32.934L33.1848 28.8816L40.1544 24.816L47.0844 28.8156Z" fill="#309090"></path><path d="M47.0712 37.0788L40.062 41.184L33.0132 37.0392L40.0488 32.934L47.0712 37.0788Z" fill="#49C2C2"></path><path d="M47.058 20.7768L40.1544 24.816L33.0396 20.7108L39.9564 16.6716L47.058 20.7768Z" fill="#1C5757"></path><path d="M47.005 45.2496L40.0882 49.2492L33.1582 45.21L40.0618 41.184L47.005 45.2496Z" fill="#82D5D5"></path><path d="M40.1544 24.816L33.1848 28.8816L26.1492 24.7368L33.0396 20.7108L40.1544 24.816Z" fill="#216464"></path><path d="M40.0885 49.2492L33.0001 53.3412L26.0833 49.3548L33.1585 45.21L40.0885 49.2492Z" fill="#97DCDC"></path><path d="M40.062 41.184L33.1585 45.21L26.0833 41.0916L33.0133 37.0392L40.062 41.184Z" fill="#52C5C5"></path><path d="M40.0488 32.934L33.0132 37.0392L26.1492 33L33.1848 28.8816L40.0488 32.934Z" fill="#319696"></path><path d="M39.9563 16.6716L33.0395 20.7108L26.0435 16.6716L32.9999 12.6588L39.9563 16.6716Z" fill="#143C3C"></path><path d="M33.1847 28.8816L26.1491 33L19.1003 28.8552L26.1491 24.7368L33.1847 28.8816Z" fill="#246C6C"></path><path d="M33.1583 45.21L26.0831 49.3548L18.9683 45.2496L26.0831 41.0916L33.1583 45.21Z" fill="#5BC8C8"></path><path d="M33.0394 20.7108L26.149 24.7368L19.1926 20.6316L26.0434 16.6716L33.0394 20.7108Z" fill="#164141"></path><path d="M33.013 37.0392L26.083 41.0916L19.1926 37.0656L26.149 33L33.013 37.0392Z" fill="#35A0A0"></path><path d="M26.1491 24.7368L19.1003 28.8552L15.3779 31.0332V22.8228L19.1927 20.6316L26.1491 24.7368Z" fill="#194C4C"></path><path d="M26.1491 33L19.1927 37.0656L15.3779 39.2964V31.0332L19.1003 28.8552L26.1491 33Z" fill="#287878"></path><path d="M26.0831 41.0916L18.9683 45.2496L15.3779 43.1772V39.2964L19.1927 37.0656L26.0831 41.0916Z" fill="#3BB1B1"></path></svg> 