<?xml version="1.0" encoding="UTF-8"?> <svg xmlns="http://www.w3.org/2000/svg" width="54" height="62" viewBox="0 0 54 62" fill="none"><path d="M1 15.8148L27 1L53 15.8148V45.4444L27 61L1 45.4444V15.8148Z" stroke="#369F9F"></path><path d="M28.0125 23.2441C26.7573 21.9828 27.6507 19.8333 29.4301 19.8333H32.5589C33.091 19.8333 33.6012 20.0454 33.9766 20.4226L43.5961 30.0893C44.3726 30.8695 44.3726 32.1305 43.5961 32.9108L33.9766 42.5774C33.6012 42.9546 33.091 43.1667 32.5589 43.1667H29.4301C27.6507 43.1667 26.7573 41.0173 28.0125 39.7559L34.8242 32.9108C35.6007 32.1305 35.6007 30.8695 34.8242 30.0893L28.0125 23.2441ZM13.3941 39.7559C12.1389 41.0173 13.0323 43.1667 14.8118 43.1667H17.9406C18.4727 43.1667 18.9829 42.9546 19.3582 42.5774L28.9778 32.9108C29.7542 32.1305 29.7542 30.8695 28.9778 30.0893L19.3582 20.4226C18.9829 20.0454 18.4727 19.8333 17.9406 19.8333H14.8118C13.0323 19.8333 12.1389 21.9828 13.3941 23.2441L20.2059 30.0893C20.9824 30.8695 20.9824 32.1305 20.2059 32.9108L13.3941 39.7559Z" fill="#3BB1B1"></path></svg> 